<mxfile host="app.diagrams.net" modified="2023-08-23T03:38:43.795Z" agent="5.0 (Windows NT 10.0; Win64; x64) AppleWebKit/537.36 (KHTML, like Gecko) Chrome/116.0.0.0 Safari/537.36" etag="9oTMjoC1ctqfS9kwnfy8" version="20.0.2" type="github">
  <diagram id="07fea595-8f29-1299-0266-81d95cde20df" name="Page-1">
    <mxGraphModel dx="1422" dy="756" grid="1" gridSize="10" guides="1" tooltips="1" connect="1" arrows="1" fold="1" page="1" pageScale="1" pageWidth="1169" pageHeight="827" background="#ffffff" math="0" shadow="0">
      <root>
        <mxCell id="0" />
        <mxCell id="1" parent="0" />
        <mxCell id="170" value="&lt;font color=&quot;#23497d&quot;&gt;用户&lt;/font&gt;" style="swimlane;whiteSpace=wrap;fillColor=none;swimlaneFillColor=#BAC8D3;fontColor=#2F5B7C;fontFamily=Tahoma;html=1;strokeColor=none;opacity=50;" parent="1" vertex="1">
          <mxGeometry x="24.5" y="88.5" width="160" height="1071.5" as="geometry">
            <mxRectangle x="20" y="20" width="80" height="23" as="alternateBounds" />
          </mxGeometry>
        </mxCell>
        <mxCell id="171" value="处方登记" style="whiteSpace=wrap;shadow=0;fontColor=#FFFFFF;fontFamily=Helvetica;fontStyle=0;html=1;fontSize=12;plain-purple;strokeColor=none;fillColor=#2f5b7c;gradientColor=none;spacing=6;verticalAlign=middle;" parent="170" vertex="1">
          <mxGeometry x="20" y="60" width="120" height="60" as="geometry" />
        </mxCell>
        <mxCell id="172" value="购药下单" style="whiteSpace=wrap;strokeColor=none;fillColor=#2f5b7c;shadow=0;fontColor=#FFFFFF;fontFamily=Helvetica;fontStyle=0;html=1;fontSize=12;spacing=6;verticalAlign=middle;" parent="170" vertex="1">
          <mxGeometry x="20" y="171.5" width="120" height="60" as="geometry" />
        </mxCell>
        <mxCell id="175" value="" style="edgeStyle=segmentEdgeStyle;strokeColor=#2F5B7C;strokeWidth=3;html=1;endArrow=block;endFill=1;" parent="170" source="171" target="172" edge="1">
          <mxGeometry width="100" height="100" relative="1" as="geometry">
            <mxPoint x="160" y="110" as="sourcePoint" />
            <mxPoint x="260" y="185" as="targetPoint" />
          </mxGeometry>
        </mxCell>
        <mxCell id="183" value="商家中心" style="swimlane;whiteSpace=wrap;fillColor=none;swimlaneFillColor=#BAC8D3;fontColor=#2F5B7C;fontFamily=Tahoma;html=1;strokeColor=none;opacity=25;" parent="1" vertex="1">
          <mxGeometry x="184.5" y="88.5" width="160" height="1071.5" as="geometry">
            <mxRectangle x="20" y="20" width="80" height="23" as="alternateBounds" />
          </mxGeometry>
        </mxCell>
        <mxCell id="184" value="查看随访任务" style="whiteSpace=wrap;shadow=0;fontColor=#FFFFFF;fontFamily=Helvetica;fontStyle=0;html=1;fontSize=12;plain-purple;strokeColor=none;fillColor=#2f5b7c;gradientColor=none;spacing=6;verticalAlign=middle;" parent="183" vertex="1">
          <mxGeometry x="20" y="271.5" width="120" height="60" as="geometry" />
        </mxCell>
        <mxCell id="-g_8WtVJbSP3Vy0Ikp_V-223" value="" style="edgeStyle=orthogonalEdgeStyle;rounded=1;orthogonalLoop=1;jettySize=auto;html=1;strokeWidth=3;strokeColor=#2F5B7C;" edge="1" parent="183" source="185" target="-g_8WtVJbSP3Vy0Ikp_V-219">
          <mxGeometry relative="1" as="geometry" />
        </mxCell>
        <mxCell id="185" value="完成随访任务&lt;br&gt; " style="shape=document;whiteSpace=wrap;verticalAlign=middle;strokeColor=none;fillColor=#12aab5;shadow=0;fontColor=#FFFFFF;fontFamily=Helvetica;fontStyle=0;html=1;fontSize=12;spacing=6;spacingBottom=22;" parent="183" vertex="1">
          <mxGeometry x="20" y="381.5" width="120" height="80" as="geometry" />
        </mxCell>
        <mxCell id="186" value="" style="edgeStyle=segmentEdgeStyle;strokeColor=#2F5B7C;strokeWidth=3;html=1;endArrow=block;endFill=1;" parent="183" source="184" target="185" edge="1">
          <mxGeometry width="100" height="100" relative="1" as="geometry">
            <mxPoint x="-10" y="100" as="sourcePoint" />
            <mxPoint x="90" y="175" as="targetPoint" />
          </mxGeometry>
        </mxCell>
        <mxCell id="-g_8WtVJbSP3Vy0Ikp_V-227" value="" style="edgeStyle=orthogonalEdgeStyle;rounded=1;orthogonalLoop=1;jettySize=auto;html=1;strokeColor=#2F5B7C;strokeWidth=3;" edge="1" parent="183" source="-g_8WtVJbSP3Vy0Ikp_V-219" target="-g_8WtVJbSP3Vy0Ikp_V-226">
          <mxGeometry relative="1" as="geometry" />
        </mxCell>
        <mxCell id="-g_8WtVJbSP3Vy0Ikp_V-219" value="随访小结引导" style="whiteSpace=wrap;html=1;fillColor=#2f5b7c;strokeColor=none;fontColor=#FFFFFF;shadow=0;fontStyle=0;gradientColor=none;spacing=6;" vertex="1" parent="183">
          <mxGeometry x="20" y="501.5" width="120" height="60" as="geometry" />
        </mxCell>
        <mxCell id="-g_8WtVJbSP3Vy0Ikp_V-226" value="发送AI随访小结" style="whiteSpace=wrap;html=1;fillColor=#2f5b7c;strokeColor=none;fontColor=#FFFFFF;shadow=0;fontStyle=0;gradientColor=none;spacing=6;" vertex="1" parent="183">
          <mxGeometry x="20" y="641.5" width="120" height="60" as="geometry" />
        </mxCell>
        <mxCell id="187" value="&lt;font color=&quot;#23497d&quot;&gt;随访系统&lt;/font&gt;" style="swimlane;whiteSpace=wrap;fillColor=none;swimlaneFillColor=#BAC8D3;fontColor=#2F5B7C;fontFamily=Tahoma;html=1;strokeColor=none;opacity=50;" parent="1" vertex="1">
          <mxGeometry x="344.5" y="88.5" width="160" height="1071.5" as="geometry">
            <mxRectangle x="20" y="20" width="80" height="23" as="alternateBounds" />
          </mxGeometry>
        </mxCell>
        <mxCell id="188" value="新增随访任务" style="shape=document;whiteSpace=wrap;verticalAlign=middle;strokeColor=none;fillColor=#12aab5;shadow=0;fontColor=#FFFFFF;fontFamily=Helvetica;fontStyle=0;html=1;fontSize=12;spacing=6;spacingBottom=22;" parent="187" vertex="1">
          <mxGeometry x="20" y="161.5" width="120" height="80" as="geometry" />
        </mxCell>
        <mxCell id="189" value="查询随访小结AI指令" style="shape=document;whiteSpace=wrap;verticalAlign=middle;strokeColor=none;fillColor=#12aab5;shadow=0;fontColor=#FFFFFF;fontFamily=Helvetica;fontStyle=0;html=1;fontSize=12;spacing=6;spacingBottom=22;" parent="187" vertex="1">
          <mxGeometry x="20" y="491.5" width="120" height="80" as="geometry" />
        </mxCell>
        <mxCell id="190" value="保存AI随访小结" style="shape=document;whiteSpace=wrap;strokeColor=none;fillColor=#12aab5;shadow=0;fontColor=#FFFFFF;fontFamily=Helvetica;fontStyle=0;html=1;fontSize=12;verticalAlign=middle;spacing=6;spacingBottom=22;" parent="187" vertex="1">
          <mxGeometry x="20" y="631.5" width="120" height="80" as="geometry" />
        </mxCell>
        <mxCell id="193" value="&lt;font color=&quot;#23497d&quot;&gt;科技AI&lt;/font&gt;" style="swimlane;whiteSpace=wrap;fillColor=none;swimlaneFillColor=#BAC8D3;fontColor=#2F5B7C;fontFamily=Tahoma;html=1;strokeColor=none;opacity=25;" parent="1" vertex="1">
          <mxGeometry x="504.5" y="88.5" width="160" height="1071.5" as="geometry">
            <mxRectangle x="20" y="20" width="80" height="23" as="alternateBounds" />
          </mxGeometry>
        </mxCell>
        <mxCell id="195" value="AI随访小结生成" style="whiteSpace=wrap;strokeColor=none;fillColor=#2f5b7c;shadow=0;fontColor=#FFFFFF;fontFamily=Helvetica;fontStyle=0;html=1;fontSize=12;spacing=6;verticalAlign=middle;" parent="193" vertex="1">
          <mxGeometry x="20.5" y="501.5" width="120" height="60" as="geometry" />
        </mxCell>
        <mxCell id="204" value="" style="edgeStyle=segmentEdgeStyle;strokeColor=#2F5B7C;strokeWidth=3;html=1;endArrow=block;endFill=1;exitX=1;exitY=0.5;exitDx=0;exitDy=0;entryX=0;entryY=0.5;entryDx=0;entryDy=0;" parent="1" source="172" target="188" edge="1">
          <mxGeometry x="164.5" y="178.5" width="100" height="100" as="geometry">
            <mxPoint x="174.5" y="188.5" as="sourcePoint" />
            <mxPoint x="274.5" y="263.5" as="targetPoint" />
          </mxGeometry>
        </mxCell>
        <mxCell id="212" value="" style="edgeStyle=segmentEdgeStyle;strokeColor=#2F5B7C;strokeWidth=3;html=1;endArrow=block;endFill=1;entryX=0.996;entryY=0.388;entryDx=0;entryDy=0;entryPerimeter=0;exitX=0.5;exitY=1;exitDx=0;exitDy=0;" parent="1" source="195" target="190" edge="1">
          <mxGeometry x="644.5" y="433.5" width="100" height="100" as="geometry">
            <mxPoint x="514.5" y="588.5" as="sourcePoint" />
            <mxPoint x="744.5" y="568.5" as="targetPoint" />
            <Array as="points">
              <mxPoint x="585" y="750" />
            </Array>
          </mxGeometry>
        </mxCell>
        <mxCell id="207" value="" style="edgeStyle=segmentEdgeStyle;strokeColor=#2F5B7C;strokeWidth=3;html=1;endArrow=block;endFill=1;exitX=0.521;exitY=0.813;exitDx=0;exitDy=0;exitPerimeter=0;entryX=1;entryY=0.5;entryDx=0;entryDy=0;" parent="1" source="188" target="184" edge="1">
          <mxGeometry x="324.5" y="283.5" width="100" height="100" as="geometry">
            <mxPoint x="454.5" y="298.5" as="sourcePoint" />
            <mxPoint x="554.5" y="198.5" as="targetPoint" />
            <Array as="points">
              <mxPoint x="427" y="390" />
            </Array>
          </mxGeometry>
        </mxCell>
        <mxCell id="-g_8WtVJbSP3Vy0Ikp_V-224" value="" style="edgeStyle=orthogonalEdgeStyle;rounded=1;orthogonalLoop=1;jettySize=auto;html=1;strokeColor=#2F5B7C;strokeWidth=3;" edge="1" parent="1" source="-g_8WtVJbSP3Vy0Ikp_V-219" target="189">
          <mxGeometry relative="1" as="geometry" />
        </mxCell>
        <mxCell id="-g_8WtVJbSP3Vy0Ikp_V-225" value="" style="edgeStyle=orthogonalEdgeStyle;rounded=1;orthogonalLoop=1;jettySize=auto;html=1;strokeColor=#2F5B7C;strokeWidth=3;" edge="1" parent="1" source="189" target="195">
          <mxGeometry relative="1" as="geometry" />
        </mxCell>
        <mxCell id="-g_8WtVJbSP3Vy0Ikp_V-228" value="" style="edgeStyle=orthogonalEdgeStyle;rounded=1;orthogonalLoop=1;jettySize=auto;html=1;strokeWidth=3;strokeColor=#2F5B7C;" edge="1" parent="1" source="190" target="-g_8WtVJbSP3Vy0Ikp_V-226">
          <mxGeometry relative="1" as="geometry" />
        </mxCell>
        <mxCell id="-g_8WtVJbSP3Vy0Ikp_V-231" value="" style="edgeStyle=orthogonalEdgeStyle;rounded=0;orthogonalLoop=1;jettySize=auto;html=1;strokeColor=#2F5B7C;strokeWidth=3;" edge="1" parent="1" source="173" target="-g_8WtVJbSP3Vy0Ikp_V-230">
          <mxGeometry relative="1" as="geometry" />
        </mxCell>
        <mxCell id="173" value="发送随访小结微信消息" style="whiteSpace=wrap;strokeColor=none;fillColor=#2f5b7c;shadow=0;fontColor=#FFFFFF;fontFamily=Helvetica;fontStyle=0;html=1;fontSize=12;spacing=6;verticalAlign=middle;" parent="1" vertex="1">
          <mxGeometry x="204.5" y="850" width="120" height="60" as="geometry" />
        </mxCell>
        <mxCell id="-g_8WtVJbSP3Vy0Ikp_V-229" value="" style="edgeStyle=orthogonalEdgeStyle;rounded=1;orthogonalLoop=1;jettySize=auto;html=1;strokeColor=#2F5B7C;strokeWidth=3;" edge="1" parent="1" source="-g_8WtVJbSP3Vy0Ikp_V-226" target="173">
          <mxGeometry relative="1" as="geometry" />
        </mxCell>
        <mxCell id="-g_8WtVJbSP3Vy0Ikp_V-233" value="" style="edgeStyle=orthogonalEdgeStyle;rounded=1;orthogonalLoop=1;jettySize=auto;html=1;strokeColor=#2F5B7C;strokeWidth=3;" edge="1" parent="1" source="-g_8WtVJbSP3Vy0Ikp_V-230" target="-g_8WtVJbSP3Vy0Ikp_V-232">
          <mxGeometry relative="1" as="geometry" />
        </mxCell>
        <mxCell id="-g_8WtVJbSP3Vy0Ikp_V-230" value="发送随访小结短信消息" style="whiteSpace=wrap;html=1;fillColor=#2f5b7c;strokeColor=none;fontColor=#FFFFFF;shadow=0;fontStyle=0;spacing=6;" vertex="1" parent="1">
          <mxGeometry x="204.5" y="950" width="120" height="60" as="geometry" />
        </mxCell>
        <mxCell id="-g_8WtVJbSP3Vy0Ikp_V-235" value="" style="edgeStyle=orthogonalEdgeStyle;rounded=1;orthogonalLoop=1;jettySize=auto;html=1;strokeColor=#2F5B7C;strokeWidth=3;" edge="1" parent="1" source="-g_8WtVJbSP3Vy0Ikp_V-232" target="-g_8WtVJbSP3Vy0Ikp_V-234">
          <mxGeometry relative="1" as="geometry" />
        </mxCell>
        <mxCell id="-g_8WtVJbSP3Vy0Ikp_V-232" value="查看随访小节微信消息" style="whiteSpace=wrap;html=1;fillColor=#2f5b7c;strokeColor=none;fontColor=#FFFFFF;shadow=0;fontStyle=0;spacing=6;" vertex="1" parent="1">
          <mxGeometry x="44.5" y="950" width="120" height="60" as="geometry" />
        </mxCell>
        <mxCell id="-g_8WtVJbSP3Vy0Ikp_V-234" value="查看随访小节短信消息" style="whiteSpace=wrap;html=1;fillColor=#2f5b7c;strokeColor=none;fontColor=#FFFFFF;shadow=0;fontStyle=0;spacing=6;rounded=1;" vertex="1" parent="1">
          <mxGeometry x="44.5" y="1060" width="120" height="60" as="geometry" />
        </mxCell>
      </root>
    </mxGraphModel>
  </diagram>
</mxfile>
